# xmcd
#
# Track frame offsets: 
#        150
#        16437
#        33845
#        50025
#        69147
#        89260
#        104970
#        120920
#        137172
#        156200
#        176907
#        204487
#        234705
#
# Disc length: 3512 seconds
#
# Revision: 2
# Processed by: cddbd v1.5.2PL0 Copyright (c) Steve Scherf et al.
# Submitted via: ExactAudioCopy v0.99pb4
#
DISCID=b30db60d
DTITLE=Models - Out Of Mind Out Of Sight
DYEAR=1985
DGENRE=Rock
TTITLE0=Out Of Mind Out Of Sight
TTITLE1=Big On Love
TTITLE2=Rining Like A Bell
TTITLE3=Stormy Tonight
TTITLE4=These Blues
TTITLE5=Cold Fever
TTITLE6=Sooner In Heaven
TTITLE7=Seeing Is Believing
TTITLE8=Barbados
TTITLE9=King Of Kings
TTITLE10=Big On Love - 12" Australian Mix
TTITLE11=Barbados - 12" Version
TTITLE12=Out Of Mind Out Of Sight - 12" Version
EXTD=1985
EXTT0=
EXTT1=
EXTT2=
EXTT3=
EXTT4=
EXTT5=
EXTT6=
EXTT7=
EXTT8=
EXTT9=
EXTT10=
EXTT11=
EXTT12=
PLAYORDER=
